<svg width="75" height="75" xmlns="http://www.w3.org/2000/svg">
 <defs>
  <filter id="svg_2_blur">
   <feGaussianBlur stdDeviation="0.1" in="SourceGraphic"/>
  </filter>
 </defs>
 <g>
  <title>background</title>
  <rect fill="none" id="canvas_background" height="77" width="77" y="-1" x="-1"/>
 </g>
 <g>
  <title>Layer 1</title>
  <path filter="url(#svg_2_blur)" id="svg_2" fill="#ffa500" d="m38,73.93108l0,0c19.88225,0 36,-16.11775 36,-36l0,0c0,-19.88225 -16.11775,-36 -36,-36l0,0c-19.88225,0 -36,16.11775 -36,36l0,0c0,19.88225 16.11775,36 36,36z"/>
  <path id="svg_3" fill="#000000" d="m20.04024,27.980892l0,20.38529c0,1.10904 0.81174,2.00787 1.93006,2.00787l31.81471,0c1.11717,0 1.93007,-0.90929 1.93007,-2.00787l0,-20.38529c0,-1.21703 -0.72697,-2.16232 -1.93007,-2.16232l-31.81471,0c-1.24954,0 -1.93006,0.96852 -1.93006,2.16232m2.93342,1.77562c0,-0.49123 0.29729,-0.77226 0.77226,-0.77226c0.2938,0 11.85445,7.32542 12.55471,7.75509l1.80929,1.12529c0.57367,-0.38438 1.14967,-0.71303 1.74426,-1.11135c1.21354,-0.77574 12.01122,-7.76903 12.30851,-7.76903c0.47613,0 0.77226,0.28103 0.77226,0.77226c0,0.52025 -1.00219,1.03703 -1.65484,1.43535c-4.10052,2.4991 -8.19987,5.22348 -12.25974,7.81548c-0.2369,0.16026 -0.69561,0.50284 -1.03936,0.45058c-0.38322,-0.05922 -12.14709,-7.6169 -14.28735,-8.87574c-0.32168,-0.18929 -0.72,-0.36232 -0.72,-0.82567"/>
  <line stroke="#ffa500" transform="rotate(0.9054437279701233 23.67282676696828,39.19937133789057) " stroke-linecap="undefined" stroke-linejoin="undefined" id="svg_5" y2="48.917153" x2="23.76354" y1="29.481586" x1="23.582112" stroke-width="1.5" fill="none"/>
  <line stroke-linecap="null" stroke-linejoin="null" id="svg_7" y2="43.896418" x2="51.697832" y1="29.926444" x1="52.060688" stroke-opacity="null" stroke-width="null" stroke="null" fill="none"/>
  <line stroke-linecap="null" stroke-linejoin="null" id="svg_8" y2="54.237827" x2="23.213599" y1="40.449282" x1="42.082135" stroke-opacity="null" stroke-width="null" stroke="null" fill="none"/>
  <line stroke-linecap="null" stroke-linejoin="null" id="svg_9" y2="43.71499" x2="67.119231" y1="43.896418" x1="43.352133" stroke-opacity="null" stroke-width="null" stroke="null" fill="none"/>
  <line stroke-linecap="null" stroke-linejoin="null" id="svg_10" y2="61.676385" x2="55.144968" y1="24.665026" x1="36.639288" stroke-opacity="null" stroke-width="null" stroke="null" fill="none"/>
  <line stroke-linecap="null" stroke-linejoin="null" id="svg_11" y2="49.339265" x2="5.433632" y1="49.339265" x1="3.437922" stroke-opacity="null" stroke-width="null" stroke="null" fill="none"/>
  <line stroke="#ffa500" transform="rotate(-0.4474026560783386 52.25037765503036,39.20370483398414) " stroke-linecap="undefined" stroke-linejoin="undefined" id="svg_12" y2="48.931078" x2="52.250377" y1="29.476333" x1="52.250379" stroke-width="1.5" fill="none"/>
 </g>
</svg>