<svg width="60" height="60" xmlns="http://www.w3.org/2000/svg">
 <title/>

 <g>
  <title>background</title>
  <rect fill="none" id="canvas_background" height="402" width="582" y="-1" x="-1"/>
 </g>
 <g>
  <title>Layer 1</title>
  <path id="Instagram" fill="#ffa500" d="m30,60c16.56854,0 30,-13.43146 30,-30c0,-16.56854 -13.43146,-30 -30,-30c-16.56854,0 -30,13.43146 -30,30c0,16.56854 13.43146,30 30,30z"/>
  <path id="svg_1" fill="#000a0a" d="m21.918872,24.23077l-9.07505,0l0,-1.15385l0,0c0,11.12771 0,18.07693 0,18.07693c0,5 5,5 5,5l23.46154,0c0,0 5,0 5,-5l0,-16.92308l0,0l0,-1.15385l-9.80706,0c-1.57882,-2.10192 -4.09249,-3.46154 -6.92371,-3.46154c-2.83123,0 -5.3449,1.35962 -6.92371,3.46154l-9.80706,0c0,-1.70058 0,-3.49874 0,-5.38461c0,-3.15609 1.99218,-4.32 3.46154,-4.74923l0,6.6723l1.15384,0l0,-6.89848l0,0c0.24002,-0.02459 0.38462,-0.02459 0.38462,-0.02459l23.46154,0c0,0 5,0 5,5l0,6.53846l-9.07506,0c0.63729,1.20561 0.99813,2.57989 0.99813,4.03846c0,4.77939 -3.87446,8.65385 -8.65384,8.65385c-4.77939,0 -8.65385,-3.87446 -8.65385,-8.65385c0,-1.45857 0.36084,-2.83285 0.99813,-4.03846l0,0zm18.31117,-9.23077c-1.10546,0 -2.00161,0.90144 -2.00161,2.00161l0,1.76601c0,1.10546 0.90145,2.00161 2.00161,2.00161l1.76602,0c1.10545,0 2.0016,-0.90144 2.0016,-2.00161l0,-1.76601c0,-1.10546 -0.90144,-2.00161 -2.0016,-2.00161l-1.76602,0zm-19.3093,-2.30769l0,6.92307l1.15385,0l0,-6.92307l-1.15385,0zm-2.30769,0l0,6.92307l1.15384,0l0,-6.92307l-1.15384,0zm10.96154,22.5c3.82351,0 6.92307,-3.09957 6.92307,-6.92308c0,-3.82351 -3.09956,-6.92308 -6.92307,-6.92308c-3.82351,0 -6.92308,3.09957 -6.92308,6.92308c0,3.82351 3.09957,6.92308 6.92308,6.92308zm0,-2.30769c2.549,0 4.61538,-2.06638 4.61538,-4.61539c0,-2.54901 -2.06638,-4.61538 -4.61538,-4.61538c-2.54901,0 -4.61539,2.06637 -4.61539,4.61538c0,2.54901 2.06638,4.61539 4.61539,4.61539z"/>
 </g>
</svg>